<?xml version="1.0" standalone="no"?>
<!DOCTYPE svg PUBLIC "-//W3C//DTD SVG 20010904//EN"
 "http://www.w3.org/TR/2001/REC-SVG-20010904/DTD/svg10.dtd">
<svg version="1.0" xmlns="http://www.w3.org/2000/svg"
 width="512.000000pt" height="512.000000pt" viewBox="0 0 512.000000 512.000000"
 preserveAspectRatio="xMidYMid meet">

<g transform="translate(0.000000,512.000000) scale(0.100000,-0.100000)"
fill="#000000" stroke="none">
<path d="M2492 5103 c-64 -31 -76 -62 -82 -210 l-5 -132 -90 76 c-127 108
-169 122 -246 83 -51 -27 -79 -72 -79 -130 0 -62 22 -96 113 -174 42 -37 77
-69 77 -70 0 -2 -44 -14 -97 -26 -299 -69 -617 -223 -892 -433 -431 -329 -839
-859 -1113 -1443 -54 -115 -61 -168 -28 -222 38 -62 69 -72 218 -72 l132 0 0
-1118 c0 -1069 1 -1119 19 -1152 10 -19 36 -45 57 -57 l39 -23 2045 0 2045 0
39 23 c21 12 47 38 57 57 18 33 19 83 19 1152 l0 1118 133 0 c148 0 179 10
217 72 41 67 31 105 -88 340 -370 732 -882 1287 -1452 1577 -147 75 -280 125
-453 171 l-139 36 76 65 c110 94 138 163 97 239 -27 52 -74 80 -133 80 -61 0
-66 -3 -175 -96 l-88 -75 -5 133 c-4 117 -8 137 -27 164 -43 60 -125 80 -191
47z m123 -847 c179 -75 387 -510 544 -1141 27 -108 101 -445 101 -459 0 -3
-315 -6 -700 -6 -385 0 -700 2 -700 5 0 15 74 352 100 456 137 546 306 941
465 1088 74 68 125 84 190 57z m-587 -73 c-2 -5 -28 -57 -59 -118 -143 -280
-283 -728 -384 -1230 -20 -98 -37 -181 -39 -182 -1 -2 -256 -2 -565 -1 l-561
3 70 124 c386 682 890 1168 1425 1372 104 40 119 44 113 32z m1197 -40 c452
-178 875 -550 1230 -1083 106 -160 235 -378 235 -398 0 -9 -140 -12 -560 -12
-308 0 -560 2 -560 5 0 25 -82 402 -122 560 -88 348 -190 640 -297 850 -31 61
-57 114 -60 119 -4 11 24 2 134 -41z m1193 -2815 l2 -1018 -485 0 -485 0 0
470 c0 522 -3 555 -65 707 -84 209 -244 374 -459 473 -109 51 -190 70 -318 77
-436 23 -815 -261 -918 -689 -18 -77 -20 -119 -20 -560 l0 -478 -485 0 -485 0
0 1013 c0 558 3 1017 7 1020 3 4 839 6 1857 5 l1851 -3 3 -1017z m-1723 391
c155 -34 317 -162 389 -309 62 -128 66 -161 66 -657 l0 -443 -590 0 -590 0 0
443 c0 350 3 457 15 512 41 197 192 370 379 436 110 38 210 44 331 18z"/>
</g>
</svg>
